<mxfile host="app.diagrams.net" modified="2021-09-26T08:38:27.122Z" agent="5.0 (Windows NT 6.1; Win64; x64) AppleWebKit/537.36 (KHTML, like Gecko) Chrome/73.0.3683.86 Safari/537.36" etag="W5fMtF82-HCoHvwVTmQo" version="15.3.3" type="github">
  <diagram id="lwz_ERbqtApTmb-mG5vc" name="Page-1">
    <mxGraphModel dx="1102" dy="533" grid="1" gridSize="10" guides="1" tooltips="1" connect="1" arrows="1" fold="1" page="1" pageScale="1" pageWidth="827" pageHeight="1169" math="0" shadow="0">
      <root>
        <mxCell id="0" />
        <mxCell id="1" parent="0" />
        <mxCell id="PumWqLGBwoQfxq9mnSlO-6" value="" style="shape=cylinder3;whiteSpace=wrap;html=1;boundedLbl=1;backgroundOutline=1;size=15;lid=0;hachureGap=4;pointerEvents=0;fillColor=#dae8fc;strokeColor=#6c8ebf;gradientColor=#7ea6e0;" parent="1" vertex="1">
          <mxGeometry x="420" y="130" width="130" height="290" as="geometry" />
        </mxCell>
        <mxCell id="PumWqLGBwoQfxq9mnSlO-7" value="" style="verticalLabelPosition=bottom;verticalAlign=top;html=1;shape=mxgraph.flowchart.on-page_reference;hachureGap=4;pointerEvents=0;gradientColor=#7ea6e0;fillColor=#dae8fc;strokeColor=#6c8ebf;" parent="1" vertex="1">
          <mxGeometry x="420" y="110" width="130" height="40" as="geometry" />
        </mxCell>
        <mxCell id="PumWqLGBwoQfxq9mnSlO-9" value="&lt;font style=&quot;font-size: 18px&quot; color=&quot;#ffb570&quot;&gt;&lt;b&gt;数据库&lt;/b&gt;&lt;/font&gt;" style="text;html=1;strokeColor=none;fillColor=none;align=center;verticalAlign=middle;whiteSpace=wrap;rounded=0;hachureGap=4;pointerEvents=0;" parent="1" vertex="1">
          <mxGeometry x="445" y="180" width="70" height="30" as="geometry" />
        </mxCell>
        <mxCell id="PumWqLGBwoQfxq9mnSlO-10" value="" style="shape=datastore;whiteSpace=wrap;html=1;hachureGap=4;pointerEvents=0;gradientColor=#b3b3b3;fillColor=#f5f5f5;strokeColor=#666666;" parent="1" vertex="1">
          <mxGeometry x="430" y="235" width="110" height="80" as="geometry" />
        </mxCell>
        <mxCell id="PumWqLGBwoQfxq9mnSlO-11" value="规划管理生产用户" style="text;html=1;strokeColor=none;fillColor=none;align=center;verticalAlign=middle;whiteSpace=wrap;rounded=0;hachureGap=4;pointerEvents=0;" parent="1" vertex="1">
          <mxGeometry x="430" y="270" width="100" height="20" as="geometry" />
        </mxCell>
        <mxCell id="PumWqLGBwoQfxq9mnSlO-13" value="" style="rounded=0;whiteSpace=wrap;html=1;hachureGap=4;pointerEvents=0;gradientColor=#7ea6e0;fillColor=#dae8fc;strokeColor=#6c8ebf;" parent="1" vertex="1">
          <mxGeometry x="230" y="245" width="130" height="60" as="geometry" />
        </mxCell>
        <mxCell id="vK_XfO-d_SIj0LU2bE5i-1" value="" style="rounded=0;whiteSpace=wrap;html=1;hachureGap=4;pointerEvents=0;fillColor=#dae8fc;strokeColor=#6c8ebf;gradientColor=#7ea6e0;" parent="1" vertex="1">
          <mxGeometry x="560" y="335" width="150" height="60" as="geometry" />
        </mxCell>
        <mxCell id="vK_XfO-d_SIj0LU2bE5i-2" value="&lt;b&gt;&lt;font style=&quot;font-size: 16px&quot;&gt;规划大屏展示服务&lt;/font&gt;&lt;/b&gt;" style="text;html=1;strokeColor=none;fillColor=none;align=center;verticalAlign=middle;whiteSpace=wrap;rounded=0;hachureGap=4;pointerEvents=0;" parent="1" vertex="1">
          <mxGeometry x="570" y="355" width="140" height="20" as="geometry" />
        </mxCell>
        <mxCell id="vK_XfO-d_SIj0LU2bE5i-4" value="&lt;b&gt;JDBC&lt;/b&gt;" style="text;html=1;strokeColor=none;fillColor=none;align=center;verticalAlign=middle;whiteSpace=wrap;rounded=0;hachureGap=4;pointerEvents=0;" parent="1" vertex="1">
          <mxGeometry x="630" y="290" width="50" height="30" as="geometry" />
        </mxCell>
        <mxCell id="PumWqLGBwoQfxq9mnSlO-14" value="&lt;b&gt;&lt;font style=&quot;font-size: 16px&quot;&gt;规划管理服务&lt;/font&gt;&lt;/b&gt;" style="text;html=1;strokeColor=none;fillColor=none;align=center;verticalAlign=middle;whiteSpace=wrap;rounded=0;hachureGap=4;pointerEvents=0;" parent="1" vertex="1">
          <mxGeometry x="245" y="265" width="100" height="20" as="geometry" />
        </mxCell>
        <mxCell id="e7DdUHG_uZ_ilsRM5Uea-4" value="" style="endArrow=classic;html=1;startSize=14;endSize=14;sourcePerimeterSpacing=8;targetPerimeterSpacing=8;exitX=0.5;exitY=0;exitDx=0;exitDy=0;entryX=1;entryY=0.5;entryDx=0;entryDy=0;" edge="1" parent="1" source="vK_XfO-d_SIj0LU2bE5i-1" target="PumWqLGBwoQfxq9mnSlO-10">
          <mxGeometry width="50" height="50" relative="1" as="geometry">
            <mxPoint x="390" y="300" as="sourcePoint" />
            <mxPoint x="440" y="250" as="targetPoint" />
            <Array as="points">
              <mxPoint x="635" y="275" />
            </Array>
          </mxGeometry>
        </mxCell>
        <mxCell id="e7DdUHG_uZ_ilsRM5Uea-6" value="" style="endArrow=classic;html=1;startSize=14;endSize=14;sourcePerimeterSpacing=8;targetPerimeterSpacing=8;exitX=1;exitY=0.5;exitDx=0;exitDy=0;entryX=0;entryY=0.5;entryDx=0;entryDy=0;" edge="1" parent="1" source="PumWqLGBwoQfxq9mnSlO-13" target="PumWqLGBwoQfxq9mnSlO-10">
          <mxGeometry width="50" height="50" relative="1" as="geometry">
            <mxPoint x="390" y="300" as="sourcePoint" />
            <mxPoint x="440" y="250" as="targetPoint" />
          </mxGeometry>
        </mxCell>
        <mxCell id="e7DdUHG_uZ_ilsRM5Uea-7" value="&lt;b&gt;JDBC&lt;/b&gt;" style="text;html=1;strokeColor=none;fillColor=none;align=center;verticalAlign=middle;whiteSpace=wrap;rounded=0;hachureGap=4;pointerEvents=0;" vertex="1" parent="1">
          <mxGeometry x="364" y="250" width="50" height="30" as="geometry" />
        </mxCell>
      </root>
    </mxGraphModel>
  </diagram>
</mxfile>
